<svg id="Capa_1" enable-background="new 0 0 512 512" height="512" viewBox="0 0 512 512" width="512" xmlns="http://www.w3.org/2000/svg"><g><g><path d="m256.002 7.5c-93.889 0-170 76.112-170 170v74.119h340v-74.119c0-93.888-76.112-170-170-170z" fill="#636978"/></g><g><path d="m256 47.794c-11.127 0-20.147-9.02-20.147-20.147s9.02-20.147 20.147-20.147c-93.887.001-169.998 76.112-169.998 170v74.119h169.998z" fill="#555a66"/></g><g><circle cx="438.191" cy="251.131" fill="#636978" r="40"/></g><g><circle cx="73.809" cy="251.131" fill="#636978" r="40"/></g><g><path d="m85.77 303.716h51.215v-105.17h-51.215c-5.523 0-10 4.477-10 10v85.171c0 5.522 4.477 9.999 10 9.999z" fill="#707789"/></g><g><path d="m428.19 303.716h-51.215v-105.17h51.215c5.523 0 10 4.477 10 10v85.171c0 5.522-4.477 9.999-10 9.999z" fill="#707789"/></g><g><path d="m136.348 251.619v-84.171c0-65.978 53.676-119.654 119.653-119.654 65.978 0 119.655 53.676 119.655 119.654v84.171z" fill="#90ee92"/></g><g><path d="m136.348 167.448v84.171h119.654v-27.3c-65.168-98.851-.001-176.525-.001-176.525-65.977 0-119.653 53.677-119.653 119.654z" fill="#61dd74"/></g><g><path d="m374.737 480.707c-11.054-55.475-60.014-97.282-118.738-97.282s-107.684 41.808-118.738 97.282c-2.456 12.324 7.076 23.793 19.643 23.793h198.191c12.565 0 22.097-11.469 19.642-23.793z" fill="#e0b8ff"/></g><g><path d="m284.537 386.813c-9.151-2.211-18.706-3.388-28.537-3.388-58.724 0-107.684 41.808-118.738 97.282-2.456 12.324 7.076 23.793 19.643 23.793h35.081c-.001-57.042 39.449-104.862 92.551-117.687z" fill="#d2a0f5"/></g><g><path d="m256.976 303.499c-79.125 0-126.104 62.244-126.104 87.426s81.655 71.352 126.104 71.352 126.104-46.17 126.104-71.352-46.978-87.426-126.104-87.426z" fill="#ebccff"/></g><g><path d="m255.551 462.254c-10.289-.241-18.56-8.64-18.56-18.987 0-10.499 8.511-19.009 19.009-19.009v-120.747c-78.532.511-125.128 62.337-125.128 87.414 0 24.916 79.935 70.372 124.679 71.329z" fill="#e0b8ff"/></g><g><path d="m296.251 390.285c-12.594-4.438-26.138-6.861-40.249-6.861-14.11 0-27.654 2.42-40.247 6.857 3.263 19.285 20.035 33.976 40.248 33.976 20.212.001 36.984-14.688 40.248-33.972z" fill="#ffcdbe"/></g><g><path d="m375.656 169.222c-1.146 5.178-5.473 21.173-17.565 35.164-4.936 5.711-14.16 4.182-16.918-2.844l-7.631-19.44s-32.243 42.216-77.54 42.216-77.54-42.216-77.54-42.216l-7.631 19.44c-2.758 7.026-11.982 8.554-16.918 2.844-12.099-13.999-16.423-30.002-17.567-35.172-15.987 23.307-25.348 51.516-25.348 81.914 0 80.081 64.919 145 145 145s145-64.919 145-145c.001-30.395-9.359-58.6-25.342-81.906z" fill="#ffeee5"/></g><g><g><path d="m161 251.128c0-16.1 2.632-31.583 7.475-46.052-3.932 3.803-10.615 3.877-14.562-.69-12.097-13.997-16.422-29.999-17.566-35.17-15.986 23.307-25.347 51.515-25.347 81.912 0 80.081 64.919 145 145 145 8.526 0 16.878-.743 25-2.154-68.167-11.848-120-71.29-120-142.846z" fill="#ffdecf"/></g></g><g><path d="m393.191 341.496h-60c-16.569 0-30 13.431-30 30 0 16.569 13.431 30 30 30h60c16.569 0 30-13.431 30-30 0-16.569-13.432-30-30-30z" fill="#dce1eb"/></g><g><path d="m303.191 371.496h120v80h-120z" fill="#e9edf5"/></g><g><path d="m423.96 371.502c24.674.412 44.231 21.057 44.231 45.734v64.764c0 12.426-10.074 22.5-22.5 22.5-12.426 0-22.5-10.074-22.5-22.5v-.893c0-10.105-6.431-18.927-15.885-22.495-17.014-6.421-29.115-22.855-29.115-42.116 0-25.109 20.564-45.415 45.769-44.994z" fill="#f2f6fc"/></g><g><path d="m302.421 371.502c-24.674.412-44.231 21.057-44.231 45.734v64.764c0 12.426 10.074 22.5 22.5 22.5 12.426 0 22.5-10.074 22.5-22.5v-.893c0-10.105 6.431-18.927 15.885-22.495 17.014-6.421 29.115-22.855 29.115-42.116.001-25.109-20.564-45.415-45.769-44.994z" fill="#f2f6fc"/></g><g><g><g><ellipse cx="176.355" cy="288.096" fill="#ffa1ac" rx="29.387" ry="23.403"/></g><g><ellipse cx="335.645" cy="288.096" fill="#ffa1ac" rx="29.387" ry="23.403"/></g><g><path d="m279.694 270.115c0-14.643-10.608-16.019-23.693-16.019-13.086 0-23.694 1.376-23.694 16.019s10.608 26.513 23.694 26.513c13.085 0 23.693-11.87 23.693-26.513z" fill="#495560"/></g></g><g><path d="m181.268 267.656c-4.142 0-7.5-3.358-7.5-7.5v-12c0-4.142 3.358-7.5 7.5-7.5s7.5 3.358 7.5 7.5v12c0 4.142-3.358 7.5-7.5 7.5z"/></g><g><path d="m256 304.128c-17.2 0-31.193-15.258-31.193-34.013 0-23.519 21.859-23.519 31.193-23.519s31.193 0 31.193 23.519c0 18.755-13.993 34.013-31.193 34.013zm0-42.532c-15.539 0-16.193 2.611-16.193 8.519 0 10.484 7.264 19.013 16.193 19.013s16.193-8.529 16.193-19.013c0-5.907-.654-8.519-16.193-8.519z"/></g><g><path d="m330.732 267.656c-4.142 0-7.5-3.358-7.5-7.5v-12c0-4.142 3.358-7.5 7.5-7.5s7.5 3.358 7.5 7.5v12c0 4.142-3.358 7.5-7.5 7.5z"/></g></g><g><circle cx="120.754" cy="391.496" fill="#636978" r="20"/></g><g><path d="m318.191 408.996h-7.5v-7.5c0-4.142-3.358-7.5-7.5-7.5s-7.5 3.358-7.5 7.5v7.5h-7.5c-4.142 0-7.5 3.358-7.5 7.5s3.358 7.5 7.5 7.5h7.5v7.5c0 4.142 3.358 7.5 7.5 7.5s7.5-3.358 7.5-7.5v-7.5h7.5c4.142 0 7.5-3.358 7.5-7.5s-3.358-7.5-7.5-7.5z"/><path d="m438.191 408.996h-7.5v-7.5c0-4.142-3.358-7.5-7.5-7.5s-7.5 3.358-7.5 7.5v7.5h-7.5c-4.142 0-7.5 3.358-7.5 7.5s3.358 7.5 7.5 7.5h7.5v7.5c0 4.142 3.358 7.5 7.5 7.5s7.5-3.358 7.5-7.5v-7.5h7.5c4.142 0 7.5-3.358 7.5-7.5s-3.358-7.5-7.5-7.5z"/><path d="m430.014 364.459c-3.315-17.309-18.599-30.463-36.824-30.463h-9.144c4.742-7.286 8.816-14.898 12.204-22.78h31.939c8.128 0 14.96-5.579 16.918-13.103 22.896-3.375 40.583-23.22 40.583-46.983 0-23.772-17.683-43.611-40.583-46.984-1.512-5.809-5.924-10.457-11.607-12.272v-14.374c0-97.874-79.626-177.5-177.5-177.5s-177.5 79.626-177.5 177.5v15.147c-4.645 2.133-8.194 6.233-9.581 11.235-23.904 2.455-42.612 22.708-42.612 47.249s18.708 44.794 42.612 47.249c2.049 7.389 8.817 12.836 16.85 12.836h27.484v53.828c-11.528 3.274-20 13.889-20 26.452 0 15.164 12.336 27.5 27.5 27.5 5.478 0 10.583-1.617 14.875-4.389 4.45 4.646 10.049 9.433 16.466 14.156-10.943 15.008-18.571 32.312-22.191 50.478-1.604 8.047.471 16.312 5.692 22.676 5.257 6.408 13.022 10.083 21.306 10.083h198.191c8.284 0 16.049-3.675 21.306-10.083 5.221-6.364 7.295-14.628 5.691-22.675-1.375-6.899-3.329-13.671-5.817-20.246h16.074c3.749 2.717 7.876 4.96 12.309 6.633 6.702 2.529 11.033 8.605 11.033 15.478v.893c0 16.542 13.458 30 30 30s30-13.458 30-30v-64.764c.003-26.841-20.002-49.353-45.674-52.777zm-15.619-.463h-102.406c3.108-8.72 11.462-15 21.202-15h60c9.751 0 18.1 6.277 21.204 15zm-97.968 87.599c-12.597 4.754-20.736 16.338-20.736 29.512v.893c0 8.271-6.729 15-15 15s-15-6.729-15-15v-64.764c0-20.743 16.533-37.896 36.856-38.235 10.142-.181 19.711 3.65 26.937 10.756 7.228 7.108 11.208 16.604 11.208 26.738-.001 15.518-9.752 29.624-24.265 35.1zm-65.713-35.264c-9.649-1.543-18.024-7.236-23.051-15.353 8.067 1.522 16.353 2.413 24.81 2.606-1.081 4.084-1.685 8.355-1.759 12.747zm82.477-82.335c-18.203 0-33.503 13.16-36.822 30.462-15.623 2.083-29.139 11.237-37.332 24.136-1.015.022-2.03.034-3.038.034-75.818 0-137.5-61.682-137.5-137.5 0-22.57 5.441-44.464 15.849-64.142 2.998 6.892 7.428 14.825 13.891 22.303 4.062 4.701 10.136 6.882 16.25 5.837 6.086-1.041 11.066-5.095 13.323-10.844l3.172-8.082c13.067 13.277 40.225 35.618 75.017 35.618s61.95-22.341 75.017-35.618l3.172 8.082c2.257 5.75 7.237 9.804 13.323 10.845 6.114 1.045 12.188-1.136 16.25-5.837 6.461-7.476 10.89-15.407 13.888-22.297 10.405 19.676 15.846 41.567 15.846 64.135 0 30.278-9.591 58.867-27.767 82.868zm-202.036 32.049c-.942-.386-1.91-.719-2.9-1v-30.721c3.876 5.931 8.149 11.579 12.789 16.901-3.852 4.907-7.186 9.898-9.889 14.82zm299.535-72.329c0 1.378-1.122 2.5-2.5 2.5h-26.42c4.444-14.417 6.729-29.551 6.729-45.088 0-15.446-2.3-30.607-6.773-45.083h26.465c1.378 0 2.5 1.122 2.5 2.5v85.171zm40.001-42.585c0 15.288-10.7 28.204-25.001 31.613v-63.226c14.302 3.407 25.001 16.318 25.001 31.613zm-214.689-236.131c89.603 0 162.5 72.897 162.5 162.5v13.545h-22.314c-3.588-8.355-7.949-16.408-13.041-24.084-.105-28.283-9.321-55.032-26.685-77.385-2.542-3.271-7.252-3.862-10.524-1.322-3.271 2.541-3.863 7.253-1.322 10.524 15.4 19.824 23.541 43.57 23.541 68.669v.922c-1.201 5.052-5.273 19.002-15.739 31.111-.83.959-1.843.95-2.374.86-.514-.088-1.443-.405-1.888-1.54l-7.631-19.439c-.988-2.517-3.257-4.303-5.935-4.681-2.674-.38-5.354.717-7.001 2.861-.302.393-30.645 39.276-71.586 39.276s-71.284-38.884-71.58-39.268c-1.644-2.152-4.314-3.25-7-2.875-2.681.375-4.952 2.167-5.941 4.687l-7.631 19.44c-.445 1.135-1.375 1.452-1.888 1.54-.532.091-1.544.1-2.374-.86-10.467-12.11-14.538-26.057-15.739-31.113v-.921c0-61.842 50.312-112.154 112.153-112.154 25.216 0 49.049 8.208 68.923 23.737 3.264 2.551 7.977 1.972 10.527-1.292s1.972-7.977-1.292-10.527c-22.537-17.61-49.563-26.918-78.159-26.918-69.948 0-126.88 56.776-127.147 126.663-5.093 7.677-9.455 15.731-13.044 24.088h-22.31v-13.544c0-89.603 72.898-162.5 162.501-162.5zm-214.693 236.131c0-16.032 11.671-29.38 26.961-32.018v64.036c-15.29-2.638-26.961-15.986-26.961-32.018zm41.962 42.585v-85.171c0-1.378 1.122-2.5 2.5-2.5h24.501c-4.474 14.476-6.773 29.637-6.773 45.083 0 15.69 2.384 30.832 6.805 45.088h-24.533c-1.379 0-2.5-1.121-2.5-2.5zm24.983 97.78c0-6.893 5.607-12.5 12.5-12.5s12.5 5.607 12.5 12.5-5.607 12.5-12.5 12.5-12.5-5.607-12.5-12.5zm37.327 11.817c1.712-3.582 2.673-7.589 2.673-11.817 0-5.956-1.909-11.471-5.14-15.979 2.205-4.372 5.039-8.885 8.435-13.382 16.33 15.374 36.039 27.192 57.881 34.213 5.257 19.053 21.665 32.956 41.261 35.108v23.016c-8.901-.811-18.962-3.224-29.322-6.724.709-.891 1.484-1.737 2.357-2.497 3.123-2.722 3.448-7.459.727-10.582-2.722-3.123-7.459-3.447-10.582-.727-2.77 2.414-5.097 5.232-6.923 8.327-24.946-10.486-49.318-25.807-61.367-38.956zm1.612 89.09c-2.36-2.877-3.3-6.606-2.578-10.23 3.229-16.203 10.077-31.63 19.905-44.98 11.535 7.244 24.601 14.013 37.859 19.484-.076.919-.126 1.843-.126 2.773 0 9.776 4.234 19.074 11.617 25.508 1.421 1.238 3.177 1.846 4.925 1.846 2.092 0 4.174-.871 5.657-2.572 2.721-3.123 2.396-7.86-.727-10.582-3.385-2.95-5.557-6.983-6.229-11.349 11.621 3.841 22.99 6.435 33.193 7.221v12.478c0 5.462 1.475 10.584 4.036 15h-97.824c-3.772 0-7.311-1.675-9.708-4.597zm220.188-10.23c.723 3.624-.217 7.353-2.577 10.23-2.396 2.921-5.936 4.597-9.709 4.597h-48.439c2.561-4.416 4.036-9.538 4.036-15v-.893c0-6.873 4.331-12.949 11.033-15.478 4.429-1.672 8.541-3.918 12.265-6.633h26.094c3.254 7.438 5.71 15.213 7.297 23.177zm93.31-.173c0 8.271-6.729 15-15 15s-15-6.729-15-15v-.893c0-13.174-8.14-24.758-20.737-29.512-10.372-3.914-18.438-12.15-22.13-22.597-1.381-3.906-5.666-5.954-9.571-4.572-3.905 1.38-5.952 5.666-4.572 9.571 1.247 3.529 2.859 6.873 4.779 10h-30.617c5.007-8.121 7.849-17.603 7.849-27.5 0-14.189-5.572-27.483-15.689-37.433-.023-.023-.048-.044-.071-.066h46.505c-5.597 5.482-10.018 12.259-12.755 19.998-1.38 3.905.666 8.19 4.571 9.571 3.905 1.378 8.19-.667 9.571-4.571 5.38-15.219 19.852-25.234 36.011-24.992 20.323.339 36.856 17.492 36.856 38.235z"/></g></g></svg>