<svg id="Capa_1" enable-background="new 0 0 512 512" height="512" viewBox="0 0 512 512" width="512" xmlns="http://www.w3.org/2000/svg"><g><g><path d="m461.169 7.5h-58.155c-41.519 0-75.176 33.657-75.176 75.176 0 41.518 33.657 75.176 75.176 75.176 41.518 0 75.176-33.657 75.176-75.176v-58.154c.001-9.401-7.62-17.022-17.021-17.022z" fill="#ffd7d1"/></g><g><path d="m382.85 10.258c-31.722 8.815-55.012 37.888-55.012 72.418 0 41.518 33.657 75.176 75.176 75.176 23.209 0 43.956-10.523 57.745-27.052-11.125-48.806-39.304-91.19-77.909-120.542z" fill="#ffc6c2"/></g><g><path d="m403.015 117.852c-19.396 0-35.176-15.78-35.176-35.176s15.78-35.176 35.176-35.176h35.176v35.176c0 19.396-15.78 35.176-35.176 35.176z" fill="#ffa8ad"/></g><g><path d="m50.831 7.5h58.155c41.519 0 75.176 33.657 75.176 75.176 0 41.518-33.657 75.176-75.176 75.176-41.518 0-75.176-33.657-75.176-75.176v-58.154c-.001-9.401 7.62-17.022 17.021-17.022z" fill="#ffd7d1"/></g><g><path d="m129.15 10.258c31.722 8.815 55.012 37.888 55.012 72.418 0 41.518-33.657 75.176-75.176 75.176-23.209 0-43.956-10.523-57.745-27.052 11.125-48.806 39.304-91.19 77.909-120.542z" fill="#ffc6c2"/></g><g><path d="m108.985 117.852c19.396 0 35.176-15.78 35.176-35.176s-15.78-35.176-35.176-35.176h-35.176v35.176c0 19.396 15.78 35.176 35.176 35.176z" fill="#ffa8ad"/></g><g><path d="m423.276 266.118h-334.357s-22.15 63.946-22.15 87.691 60.944 71.234 189.328 71.234 189.328-47.489 189.328-71.234c.001-23.745-22.149-87.691-22.149-87.691z" fill="#e0b8ff"/></g><g><path d="m256.002 7.5c-93.889 0-170 76.112-170 170v74.119h340v-74.119c0-93.888-76.112-170-170-170z" fill="#e9edf5"/></g><g><path d="m256 47.794c-11.127 0-20.147-9.02-20.147-20.147s9.02-20.147 20.147-20.147c-93.887.001-169.998 76.112-169.998 170v74.119h169.998z" fill="#dce1eb"/></g><g><circle cx="438.191" cy="251.131" fill="#e9edf5" r="40"/></g><g><circle cx="73.809" cy="251.131" fill="#e9edf5" r="40"/></g><g><path d="m85.77 303.716h51.215v-105.17h-51.215c-5.523 0-10 4.477-10 10v85.171c0 5.522 4.477 9.999 10 9.999z" fill="#f2f6fc"/></g><g><path d="m428.19 303.716h-51.215v-105.17h51.215c5.523 0 10 4.477 10 10v85.171c0 5.522-4.477 9.999-10 9.999z" fill="#f2f6fc"/></g><g><path d="m110.998 192.794v58.334h290v-58.334c0-80.081-64.919-145-145-145-80.081 0-145 64.919-145 145z" fill="#ebccff"/></g><g><path d="m110.998 192.794v58.334h51.679v-22.114c0-115.943 93.321-181.22 93.321-181.22-80.081 0-145 64.919-145 145z" fill="#e0b8ff"/></g><g><path d="m322.755 403.479h-133.513c-26.414 17.49-45.572 45.061-51.982 77.229-2.456 12.324 7.076 23.793 19.643 23.793h198.191c12.566 0 22.098-11.469 19.642-23.793-6.41-32.169-25.567-59.739-51.981-77.229z" fill="#ffc6c2"/></g><g><path d="m189.244 403.479c-26.414 17.49-45.572 45.061-51.982 77.229-2.456 12.324 7.076 23.793 19.643 23.793h35.081c0-42.202 21.597-79.352 54.338-101.021h-57.08z" fill="#ffa8ad"/></g><g><path d="m256 383.425c-24.672 0-47.617 7.382-66.754 20.053 8.939 28.367 35.434 48.947 66.754 48.947 31.321 0 57.819-20.579 66.758-48.947-19.138-12.672-42.086-20.053-66.758-20.053z" fill="#ffdecf"/></g><g><path d="m256 383.425c-24.671 0-47.617 7.381-66.755 20.052v.001c4.234 13.437 12.411 25.12 23.17 33.703 16.638-24.82 42.214-43.145 72.121-50.368-9.151-2.211-18.705-3.388-28.536-3.388z" fill="#ffcdbe"/></g><g><path d="m255.998 129.559s-26.746 83.655-145 121.569c0 80.081 64.919 145 145 145s145-64.919 145-145c-118.253-37.914-145-121.569-145-121.569z" fill="#ffeee5"/></g><g><path d="m160.998 251.128c0-7.519.575-14.903 1.679-22.114-14.9 8.238-32.018 15.81-51.679 22.114 0 80.081 64.919 145 145 145 8.526 0 16.878-.743 25-2.154-68.166-11.847-120-71.29-120-142.846z" fill="#ffdecf"/></g><g><path d="m393.191 341.496h-60c-16.569 0-30 13.431-30 30 0 16.569 13.431 30 30 30h60c16.569 0 30-13.431 30-30 0-16.569-13.432-30-30-30z" fill="#dce1eb"/></g><g><path d="m303.191 371.496h120v80h-120z" fill="#e9edf5"/></g><g><path d="m423.96 371.502c24.674.412 44.231 21.057 44.231 45.734v64.764c0 12.426-10.074 22.5-22.5 22.5-12.426 0-22.5-10.074-22.5-22.5v-.893c0-10.105-6.431-18.927-15.885-22.495-17.014-6.421-29.115-22.855-29.115-42.116 0-25.109 20.564-45.415 45.769-44.994z" fill="#f2f6fc"/></g><g><path d="m302.421 371.502c-24.674.412-44.231 21.057-44.231 45.734v64.764c0 12.426 10.074 22.5 22.5 22.5 12.426 0 22.5-10.074 22.5-22.5v-.893c0-10.105 6.431-18.927 15.885-22.495 17.014-6.421 29.115-22.855 29.115-42.116.001-25.109-20.564-45.415-45.769-44.994z" fill="#f2f6fc"/></g><g><g><g><ellipse cx="176.355" cy="290.096" fill="#ffa1ac" rx="29.387" ry="23.403"/></g><g><ellipse cx="335.645" cy="290.096" fill="#ffa1ac" rx="29.387" ry="23.403"/></g><g><path d="m279.694 272.115c0-14.643-10.608-16.019-23.693-16.019-13.086 0-23.694 1.376-23.694 16.019s10.608 26.513 23.694 26.513c13.085 0 23.693-11.87 23.693-26.513z" fill="#495560"/></g></g><g><path d="m181.268 269.656c-4.142 0-7.5-3.358-7.5-7.5v-12c0-4.142 3.358-7.5 7.5-7.5s7.5 3.358 7.5 7.5v12c0 4.142-3.358 7.5-7.5 7.5z"/></g><g><path d="m256 306.128c-17.2 0-31.193-15.258-31.193-34.013 0-23.519 21.859-23.519 31.193-23.519s31.193 0 31.193 23.519c0 18.755-13.993 34.013-31.193 34.013zm0-42.532c-15.539 0-16.193 2.611-16.193 8.519 0 10.484 7.264 19.013 16.193 19.013s16.193-8.529 16.193-19.013c0-5.907-.654-8.519-16.193-8.519z"/></g><g><path d="m330.732 269.656c-4.142 0-7.5-3.358-7.5-7.5v-12c0-4.142 3.358-7.5 7.5-7.5s7.5 3.358 7.5 7.5v12c0 4.142-3.358 7.5-7.5 7.5z"/></g></g><g><circle cx="120.754" cy="391.496" fill="#e9edf5" r="20"/></g><g><path d="m318.191 408.996h-7.5v-7.5c0-4.142-3.358-7.5-7.5-7.5s-7.5 3.358-7.5 7.5v7.5h-7.5c-4.142 0-7.5 3.358-7.5 7.5s3.358 7.5 7.5 7.5h7.5v7.5c0 4.142 3.358 7.5 7.5 7.5s7.5-3.358 7.5-7.5v-7.5h7.5c4.142 0 7.5-3.358 7.5-7.5s-3.358-7.5-7.5-7.5z"/><path d="m415.691 401.496v7.5h-7.5c-4.142 0-7.5 3.358-7.5 7.5s3.358 7.5 7.5 7.5h7.5v7.5c0 4.142 3.358 7.5 7.5 7.5s7.5-3.358 7.5-7.5v-7.5h7.5c4.142 0 7.5-3.358 7.5-7.5s-3.358-7.5-7.5-7.5h-7.5v-7.5c0-4.142-3.358-7.5-7.5-7.5s-7.5 3.358-7.5 7.5z"/><path d="m469.115 132.344c10.844-14.411 16.576-31.586 16.576-49.667v-58.156c0-13.521-11.001-24.521-24.522-24.521h-58.155c-21.847 0-42.709 8.646-58.137 23.902-26.152-15.191-56.514-23.902-88.876-23.902s-62.725 8.711-88.878 23.903c-15.428-15.257-36.289-23.903-58.138-23.903h-58.154c-13.521 0-24.522 11-24.522 24.521v58.155c0 18.109 5.748 35.305 16.622 49.728 9.307 12.344 22.093 21.94 36.444 27.47-.574 5.799-.874 11.678-.874 17.625v15.147c-4.645 2.133-8.194 6.233-9.581 11.235-23.904 2.455-42.612 22.708-42.612 47.249s18.708 44.794 42.612 47.249c.274.988.633 1.939 1.069 2.849-7.107 24.637-10.72 42.333-10.72 52.579 0 13.398 12.801 29.117 34.405 42.438 2.258 12.906 13.538 22.749 27.081 22.749 5.182 0 10.033-1.442 14.175-3.945 7.263 2.443 14.898 4.65 22.829 6.602-13.799 16.352-23.572 36.1-27.854 57.588-1.604 8.047.471 16.312 5.692 22.676 5.257 6.408 13.022 10.083 21.306 10.083h198.191c8.284 0 16.049-3.675 21.306-10.083 5.221-6.364 7.295-14.628 5.691-22.675-1.375-6.899-3.329-13.671-5.817-20.246h16.074c3.749 2.717 7.876 4.96 12.309 6.633 6.702 2.529 11.033 8.605 11.033 15.478v.895c0 16.542 13.458 30 30 30s30-13.458 30-30v-64.764c0-20.337-11.49-38.183-28.22-47.133 3.59-5.63 5.455-11.158 5.455-16.295 0-9.95-3.409-26.938-10.12-50.492 1.038-1.575 1.816-3.33 2.303-5.203 22.896-3.375 40.583-23.22 40.583-46.983 0-23.772-17.683-43.611-40.583-46.984-1.512-5.809-5.924-10.457-11.607-12.272v-14.374c0-5.948-.3-11.828-.874-17.628 14.373-5.539 27.179-15.158 36.488-27.528zm-213.113-117.344c89.603 0 162.5 72.897 162.5 162.5v13.545h-10.025c-.942-83.285-68.974-150.751-152.478-150.751-34.922 0-69.054 12.106-96.106 34.088-3.214 2.612-3.703 7.336-1.091 10.551 2.613 3.215 7.336 3.703 10.551 1.091 24.387-19.816 55.159-30.73 86.647-30.73 75.818 0 137.5 61.682 137.5 137.5v47.859c-53.177-19.069-85.324-47.657-103.172-68.839-20.451-24.271-27.125-44.356-27.185-44.54-.991-3.101-3.873-5.199-7.128-5.207h-.018c-3.248 0-6.131 2.1-7.135 5.19-.065.2-6.734 20.273-27.171 44.534-17.846 21.186-49.998 49.786-103.191 68.861v-47.858c0-31.488 10.914-62.26 30.73-86.646 2.612-3.215 2.124-7.938-1.091-10.551-3.215-2.612-7.938-2.124-10.551 1.091-21.615 26.601-33.672 60.046-34.069 94.357h-10.018v-13.545c0-89.603 72.898-162.5 162.501-162.5zm162.319 90.715c-7.576-17.063-17.763-32.716-30.056-46.452 4.372-2.775 9.436-4.263 14.749-4.263h27.676v27.676c.001 9.369-4.782 17.978-12.369 23.039zm-101.894 345.88c-12.597 4.754-20.736 16.338-20.736 29.512v.893c0 8.271-6.729 15-15 15s-15-6.729-15-15v-64.764c0-20.743 16.533-37.896 36.856-38.235 10.15-.181 19.712 3.65 26.937 10.756 7.228 7.108 11.208 16.604 11.208 26.738-.001 15.518-9.752 29.624-24.265 35.1zm-146.521-42.526c-8.372-1.809-16.436-3.903-24.094-6.264 1.564-3.452 2.443-7.279 2.443-11.309 0-12.563-8.472-23.178-20-26.452v-30.721c16.277 24.908 39.634 44.785 67.193 56.755-9.26 4.964-17.832 11.018-25.542 17.991zm-88.597-326.393v-27.676h27.676c5.315 0 10.38 1.488 14.752 4.264-12.292 13.736-22.48 29.389-30.056 46.452-7.59-5.057-12.372-13.653-12.372-23.04zm1.962 211.04v-85.171c0-1.378 1.122-2.5 2.5-2.5h17.728v45.083c0 15.69 2.384 30.832 6.805 45.088h-24.533c-1.379 0-2.5-1.121-2.5-2.5zm132.556 104.532c11.719 3.204 23.993 5.047 36.646 5.336-1.155 4.366-1.782 8.941-1.782 13.653v27.461c-23.192-1.953-43.322-16.59-52.313-38.068 5.525-3.269 11.359-6.077 17.449-8.382zm177.364-49.252c9.751 0 18.1 6.277 21.204 15h-102.406c3.108-8.72 11.462-15 21.202-15zm-60-15c-18.203 0-33.503 13.16-36.822 30.462-15.622 2.083-29.136 11.235-37.33 24.133-1.015.022-2.031.037-3.04.037-74.017 0-134.551-58.79-137.385-132.126 59.693-20.292 95.476-52.212 115.105-75.711 10.562-12.645 17.688-24.193 22.28-32.897 4.594 8.709 11.727 20.267 22.3 32.921 19.632 23.496 55.414 55.404 115.095 75.691-1.069 28.28-10.565 54.914-27.66 77.49zm75.308-82.868v-45.083h19.691c1.378 0 2.5 1.122 2.5 2.5v85.171c0 1.378-1.122 2.5-2.5 2.5h-26.42c4.444-14.417 6.729-29.551 6.729-45.088zm-367.19-168.452v-58.155c0-5.25 4.271-9.521 9.521-9.521h58.155c16.741 0 32.765 6.216 45.107 17.254-6.965 4.902-13.562 10.291-19.744 16.117-7.295-5.432-16.078-8.371-25.363-8.371h-35.176c-4.142 0-7.5 3.358-7.5 7.5v35.176c0 15.573 8.522 29.741 21.798 37.207-2.748 7.986-4.937 16.23-6.529 24.682-24.068-10.721-40.269-35.094-40.269-61.889zm0 168.455c0-16.032 11.671-29.38 26.961-32.018v64.036c-15.29-2.638-26.961-15.986-26.961-32.018zm32.96 102.678c0-5.726 1.553-17.756 8.55-42.861.962.164 1.943.269 2.951.269h27.484v53.828c-7.683 2.182-14.006 7.621-17.37 14.73-14.785-10.296-21.615-20.315-21.615-25.966zm33.985 37.687c0-6.893 5.607-12.5 12.5-12.5s12.5 5.607 12.5 12.5-5.607 12.5-12.5 12.5-12.5-5.607-12.5-12.5zm38.939 100.907c-2.36-2.877-3.3-6.606-2.578-10.23 5.322-26.708 20.233-50.387 41.176-66.921 11.868 25.476 36.636 42.564 64.9 44.48v22.268c0 5.462 1.475 10.584 4.036 15h-97.824c-3.774 0-7.313-1.675-9.71-4.597zm220.188-10.23c.723 3.625-.217 7.353-2.577 10.23-2.396 2.921-5.936 4.597-9.709 4.597h-48.439c2.561-4.416 4.036-9.538 4.036-15v-.893c0-6.873 4.331-12.949 11.033-15.478 4.429-1.672 8.541-3.918 12.265-6.633h26.094c3.254 7.438 5.71 15.213 7.297 23.177zm93.31-64.937v64.764c0 8.271-6.729 15-15 15s-15-6.729-15-15v-.893c0-13.174-8.14-24.758-20.737-29.512-10.372-3.914-18.438-12.15-22.13-22.597-1.381-3.906-5.664-5.954-9.571-4.572-3.905 1.38-5.952 5.666-4.572 9.571 1.247 3.529 2.859 6.873 4.779 10h-30.617c5.007-8.121 7.849-17.603 7.849-27.5 0-14.189-5.572-27.483-15.689-37.433-.023-.023-.048-.044-.071-.066h46.499c-5.594 5.482-10.013 12.259-12.749 19.998-1.38 3.905.666 8.19 4.571 9.571 3.906 1.378 8.19-.667 9.571-4.571 5.38-15.219 19.874-25.234 36.011-24.992 20.322.337 36.856 17.489 36.856 38.232zm-30.677-52.777c-3.315-17.309-18.599-30.463-36.824-30.463h-9.144c4.742-7.286 8.816-14.898 12.204-22.78h31.939c.419 0 .829-.034 1.241-.063 6.956 25 8.494 36.972 8.494 42.655 0 1.471-.56 5.242-5.133 11.101-.917-.174-1.842-.326-2.777-.45zm40.677-113.328c0 15.288-10.7 28.204-25.001 31.613v-63.226c14.302 3.407 25.001 16.318 25.001 31.613zm-40.262-106.545c-1.593-8.46-3.783-16.711-6.534-24.704 13.268-7.471 21.796-21.661 21.796-37.205v-35.177c0-4.142-3.358-7.5-7.5-7.5h-35.176c-9.281 0-18.065 2.939-25.362 8.37-6.182-5.827-12.779-11.216-19.745-16.117 12.343-11.038 28.367-17.253 45.107-17.253h58.155c5.25 0 9.521 4.271 9.521 9.521v58.155c0 27.24-15.88 51.196-40.262 61.91z"/></g></g></svg>