<svg id="Capa_1" enable-background="new 0 0 512 512" height="512" viewBox="0 0 512 512" width="512" xmlns="http://www.w3.org/2000/svg"><g><g><path d="m406.096 266.118h-300.192s-21.211 63.946-21.211 87.691 48.362 71.234 171.307 71.234 171.307-47.489 171.307-71.234-21.211-87.691-21.211-87.691z" fill="#ffee6e"/></g><g><path d="m255.904 28.5c-13.077 0-25.783 1.581-37.95 4.54-4.283-14.89-15.68-25.54-29.072-25.54-17.058 0-30.887 17.278-30.887 38.592 0 1.566.083 3.106.228 4.623-14.203-9.374-31.475-9.532-41.663.656-12.062 12.062-9.623 34.058 5.448 49.129.053.053.108.101.161.153-16.598 25.217-26.266 55.401-26.266 87.848v50.245h320v-50.246c.001-88.365-71.633-160-159.999-160z" fill="#fff48f"/></g><g><path d="m256 129.559c-63.084-33.113-37.946-96.519-37.946-96.519-4.283-14.89-15.68-25.54-29.072-25.54-17.058 0-30.887 17.278-30.887 38.592 0 1.566.083 3.106.228 4.623-14.203-9.374-31.475-9.532-41.663.656-12.062 12.062-9.623 34.058 5.448 49.129.053.053.108.101.161.153-16.598 25.217-26.266 55.401-26.266 87.848v30.245h159.997z" fill="#ffee6e"/></g><g><path d="m374.737 480.707c-11.054-55.475-60.014-97.282-118.738-97.282s-107.684 41.808-118.738 97.282c-2.456 12.324 7.076 23.793 19.643 23.793h198.191c12.565 0 22.097-11.469 19.642-23.793z" fill="#e0b8ff"/></g><g><path d="m284.537 386.813c-9.151-2.211-18.706-3.388-28.537-3.388-58.724 0-107.684 41.808-118.738 97.282-2.456 12.324 7.076 23.793 19.643 23.793h35.081c-.001-57.042 39.449-104.862 92.551-117.687z" fill="#d2a0f5"/></g><g><path d="m256.976 303.499c-79.125 0-126.104 62.244-126.104 87.426s81.655 71.352 126.104 71.352 126.104-46.17 126.104-71.352-46.978-87.426-126.104-87.426z" fill="#ebccff"/></g><g><path d="m255.551 462.254c-10.289-.241-18.56-8.64-18.56-18.987 0-10.499 8.511-19.009 19.009-19.009v-120.747c-78.532.511-125.128 62.337-125.128 87.414 0 24.916 79.935 70.372 124.679 71.329z" fill="#e0b8ff"/></g><g><path d="m296.251 390.285c-12.594-4.438-26.138-6.861-40.249-6.861-14.11 0-27.654 2.42-40.247 6.857 3.263 19.285 20.035 33.976 40.248 33.976 20.212.001 36.984-14.688 40.248-33.972z" fill="#ffcdbe"/></g><g><circle cx="401.129" cy="251.131" fill="#ffdecf" r="36.081"/></g><g><circle cx="110.871" cy="251.131" fill="#ffcdbe" r="36.081"/></g><g><path d="m396.546 215.35c-85.431 0-140.546-85.791-140.546-85.791s-55.115 85.791-140.546 85.791h-.001c-2.905 11.445-4.453 23.43-4.453 35.779 0 80.081 64.919 145 145 145s145-64.919 145-145c0-12.349-1.548-24.334-4.454-35.779z" fill="#ffeee5"/></g><g><path d="m161.002 251.128c0-16.497 2.761-32.348 7.836-47.123-16.026 6.88-33.915 11.344-53.384 11.344-2.905 11.445-4.453 23.43-4.453 35.779 0 80.081 64.919 145 145 145 8.526 0 16.878-.743 25-2.154-68.166-11.848-119.999-71.29-119.999-142.846z" fill="#ffdecf"/></g><g><g><g><ellipse cx="176.355" cy="288.096" fill="#ffa1ac" rx="29.387" ry="23.403"/></g><g><ellipse cx="335.645" cy="288.096" fill="#ffa1ac" rx="29.387" ry="23.403"/></g><g><path d="m279.694 270.115c0-14.643-10.608-16.019-23.693-16.019-13.086 0-23.694 1.376-23.694 16.019s10.608 26.513 23.694 26.513c13.085 0 23.693-11.87 23.693-26.513z" fill="#495560"/></g></g><g><path d="m181.268 267.656c-4.142 0-7.5-3.358-7.5-7.5v-12c0-4.142 3.358-7.5 7.5-7.5s7.5 3.358 7.5 7.5v12c0 4.142-3.358 7.5-7.5 7.5z"/></g><g><path d="m256 304.128c-17.2 0-31.193-15.258-31.193-34.013 0-23.519 21.859-23.519 31.193-23.519s31.193 0 31.193 23.519c0 18.755-13.993 34.013-31.193 34.013zm0-42.532c-15.539 0-16.193 2.611-16.193 8.519 0 10.484 7.264 19.013 16.193 19.013s16.193-8.529 16.193-19.013c0-5.907-.654-8.519-16.193-8.519z"/></g><g><path d="m330.732 267.656c-4.142 0-7.5-3.358-7.5-7.5v-12c0-4.142 3.358-7.5 7.5-7.5s7.5 3.358 7.5 7.5v12c0 4.142-3.358 7.5-7.5 7.5z"/></g></g><g><path d="m302.979 504.5c-12.139 0-21.98-9.841-21.98-21.98v-78.02h60l-16.466 82.33c-2.055 10.274-11.077 17.67-21.554 17.67z" fill="#636978"/></g><g><path d="m289.83 438.332h16.168v-67.663h-16.168c-18.685 0-33.832 15.147-33.832 33.832 0 18.684 15.147 33.831 33.832 33.831z" fill="#707789"/></g><g><path d="m411.808 479.316-100-21.429c-9.221-1.976-15.809-10.125-15.809-19.556v-67.663c0-9.431 6.588-17.58 15.809-19.556l100-21.429c12.45-2.668 24.191 6.823 24.191 19.556v110.521c-.001 12.733-11.741 22.224-24.191 19.556z" fill="#f2f6fc"/></g><g><path d="m335.998 447.332v-85.663c0-8.063 4.824-15.175 11.983-18.307l-36.174 7.751c-9.221 1.976-15.809 10.125-15.809 19.556v67.663c0 9.431 6.588 17.58 15.809 19.556l36.174 7.751c-7.159-3.132-11.983-10.244-11.983-18.307z" fill="#e9edf5"/></g><path d="m433.287 327.854c-.804-.65-1.638-1.25-2.496-1.799-2.707-12.22-6.391-25.586-9.526-36.293 13.919-7.285 23.445-21.862 23.445-38.631 0-15.896-8.558-29.826-21.306-37.439v-25.192c0-92.36-75.14-167.5-167.5-167.5-11.147 0-22.275 1.108-33.168 3.297-6.586-14.777-19.534-24.297-33.853-24.297-19.096 0-34.98 16.829-37.905 38.783-14.607-5.114-29.813-2.623-39.72 7.284-13.8 13.8-12.798 37.659 1.529 55.382-15.97 26.197-24.383 56.168-24.383 87.051v25.302c-12.643 7.638-21.114 21.511-21.114 37.329 0 16.769 9.525 31.346 23.444 38.631-6.553 22.366-13.541 49.604-13.541 64.047 0 14.911 14.383 38.605 54.765 56.656 5.431 6.652 12.791 12.925 20.13 18.309-10.939 15.005-18.564 32.306-22.183 50.468-1.604 8.047.471 16.312 5.692 22.676 5.257 6.408 13.022 10.083 21.306 10.083h198.191c8.284 0 16.049-3.675 21.306-10.083 4.912-5.988 7.036-13.658 5.935-21.246l27.901 5.979c1.931.414 3.876.617 5.806.617 6.224 0 12.292-2.117 17.245-6.121 6.49-5.246 10.211-13.041 10.211-21.386v-20.261c0-4.142-3.358-7.5-7.5-7.5s-7.5 3.358-7.5 7.5v20.26c0 3.793-1.692 7.336-4.642 9.721s-6.77 3.297-10.478 2.502l-100-21.429c-5.726-1.227-9.881-6.367-9.881-12.223v-67.663c0-5.855 4.155-10.996 9.88-12.223l100-21.429c3.709-.795 7.529.117 10.478 2.502 2.95 2.384 4.642 5.928 4.642 9.721v60.26c0 4.142 3.358 7.5 7.5 7.5s7.5-3.358 7.5-7.5v-60.26c.002-8.344-3.72-16.139-10.21-21.385zm-27.369-48.551c1.709-9.201 2.582-18.619 2.582-28.174 0-9.475-.877-18.914-2.608-28.174 13.499 2.275 23.818 14.04 23.818 28.177 0 14.126-10.305 25.885-23.792 28.171zm-323.628-28.172c0-14.136 10.318-25.901 23.817-28.177-1.73 9.26-2.607 18.7-2.607 28.174 0 9.627.907 19.045 2.621 28.181-13.506-2.269-23.831-14.037-23.831-28.178zm9.903 102.678c0-10.151 4.541-31.148 12.839-59.499 1.581.213 3.188.339 4.817.377 6.305 21.116 17.063 40.328 31.192 56.534-10.577 13.471-16.991 27.28-17.601 38.037-22.621-13.348-31.247-27.831-31.247-35.449zm46.18 37.116c0-5.959 4.122-16.752 13.184-28.784 16.33 15.373 36.039 27.189 57.88 34.209 5.732 20.735 24.718 35.408 46.566 35.408.907 0 1.816-.032 2.724-.083 4.035 4.612 9.07 8.324 14.771 10.786v10.459c-6.11 1.227-11.656 1.856-16.522 1.856-9.668 0-22.114-2.556-35.571-7.074.7-.874 1.462-1.705 2.32-2.452 3.123-2.722 3.448-7.459.727-10.582-2.722-3.123-7.459-3.448-10.582-.727-2.766 2.41-5.089 5.223-6.914 8.312-8.658-3.615-17.467-7.906-26.007-12.737-27.952-15.811-42.576-31.382-42.576-38.591zm150.126 39.873c-13.903-.696-25-12.225-25-26.298s11.097-25.602 25-26.298zm-38.289-14.547c-9.42-1.66-17.595-7.303-22.539-15.271 6.805 1.284 13.766 2.12 20.855 2.464-.009.352-.027.702-.027 1.057 0 4.081.603 8.022 1.711 11.75zm-103.017 76.152c-2.36-2.877-3.3-6.606-2.578-10.23 3.229-16.206 10.079-31.636 19.91-44.987 3.4 2.129 6.505 3.952 9.038 5.385 8.47 4.791 18.385 9.698 28.824 14.006-.081.952-.134 1.909-.134 2.872 0 9.776 4.234 19.074 11.617 25.508 1.421 1.238 3.177 1.846 4.925 1.846 2.092 0 4.174-.871 5.657-2.572 2.721-3.123 2.396-7.86-.727-10.582-3.407-2.969-5.586-7.034-6.242-11.432 13.642 4.542 27.434 7.559 39.493 7.559 5.025 0 10.564-.544 16.522-1.597v14.34c0 5.261 1.392 10.2 3.817 14.48h-120.412c-3.774.001-7.313-1.674-9.71-4.596zm220.188-10.23c.723 3.624-.217 7.353-2.577 10.23-2.396 2.921-5.936 4.597-9.709 4.597h-26.451c1.506-2.658 2.62-5.58 3.244-8.699l3.536-17.683 30.846 6.61c.404 1.643.782 3.294 1.111 4.945zm-57.145-16.952 10.518 2.254-3.577 17.885c-1.349 6.745-7.32 11.64-14.199 11.64-7.984 0-14.48-6.496-14.48-14.48v-36.722c.357.011.712.025 1.071.027 2.748 9.57 10.596 17.238 20.667 19.396zm0-121.442c-10.071 2.158-17.919 9.826-20.666 19.396-17.029.106-31.647 10.559-37.868 25.38-73.836-2.28-133.201-63.047-133.201-137.426 0-9.575.989-19.107 2.943-28.412 22.028-.981 43.905-7.37 65.117-19.027 3.63-1.995 4.956-6.555 2.96-10.185-1.995-3.63-6.557-4.957-10.185-2.96-20.74 11.398-42.069 17.212-63.404 17.298-1.671-.194-3.374-.292-5.061-.292-2.547 0-5.039.232-7.467.653v-19.704c0-29.895 8.656-58.847 25.031-83.725 1.971-2.994 1.547-6.964-1.011-9.476l-.157-.149c-12.084-12.121-14.51-29.37-5.403-38.478 7.438-7.439 20.691-7.314 32.229.3 2.411 1.592 5.521 1.657 7.996.168 2.476-1.489 3.876-4.266 3.601-7.142-.131-1.369-.194-2.647-.194-3.909 0-17.144 10.491-31.091 23.387-31.091 9.617 0 18.404 8.083 21.864 20.113 1.112 3.864 5.07 6.163 8.981 5.214 11.804-2.869 23.976-4.325 36.176-4.325 84.089 0 152.5 68.411 152.5 152.5v19.669c-2.368-.4-4.796-.619-7.275-.619-1.674 0-3.359.103-5.014.293-41.454-.153-75.41-22.224-96.623-40.756-23.482-20.513-37.05-41.378-37.182-41.582-1.379-2.146-3.755-3.442-6.306-3.444h-.006c-2.548 0-4.925 1.297-6.306 3.439-.168.262-17.201 26.425-46.207 49.041-3.267 2.547-3.85 7.259-1.303 10.526s7.26 3.851 10.526 1.303c20.713-16.149 35.502-33.667 43.293-43.914 6.471 8.506 17.771 22.029 33.289 35.637 31.578 27.691 66.462 43.036 101.265 44.62 1.955 9.308 2.943 18.84 2.943 28.416 0 29.15-8.981 56.873-25.954 80.37zm100-21.429-21.933 4.7c5.917-10.261 10.568-21.105 13.912-32.366 1.607-.04 3.192-.165 4.751-.375 2.402 8.218 5.115 17.972 7.428 27.482-1.385.083-2.775.263-4.158.559z"/></g></svg>